<svg width="14" height="14" viewBox="0 0 14 14" fill="none" xmlns="http://www.w3.org/2000/svg">
<g id="icon/communication/phone_24px">
<path id="icon/communication/phone_24px_2" fill-rule="evenodd" clip-rule="evenodd" d="M2.33333 1.75H4.375C4.69583 1.75 4.95833 2.0125 4.95833 2.33333C4.95833 3.0625 5.075 3.7625 5.29083 4.41583C5.355 4.62 5.30833 4.8475 5.145 5.01083L3.86167 6.29417C4.70167 7.945 6.055 9.2925 7.70583 10.1383L8.98917 8.855C9.10583 8.74417 9.25167 8.68583 9.40333 8.68583C9.46167 8.68583 9.52583 8.69167 9.58417 8.715C10.2375 8.93083 10.9433 9.0475 11.6667 9.0475C11.9875 9.0475 12.25 9.31 12.25 9.63083V11.6667C12.25 11.9875 11.9875 12.25 11.6667 12.25C6.18917 12.25 1.75 7.81083 1.75 2.33333C1.75 2.0125 2.0125 1.75 2.33333 1.75ZM3.81499 2.9167C3.84999 3.43586 3.93749 3.94336 4.07749 4.42753L3.37749 5.12753C3.13833 4.42753 2.98666 3.6867 2.93416 2.9167H3.81499ZM9.56666 9.92837C10.0625 10.0684 10.57 10.1559 11.0833 10.1909V11.06C10.3133 11.0075 9.5725 10.8559 8.86666 10.6225L9.56666 9.92837Z" fill="black"/>
</g>
</svg>
