<svg width="14" height="14" viewBox="0 0 14 14" fill="none" xmlns="http://www.w3.org/2000/svg">
<path fill-rule="evenodd" clip-rule="evenodd" d="M9.04568 8.70833H9.63818L13.3807 12.6667L12.2632 13.8462L8.51318 9.89583V9.27042L8.31068 9.04875C7.45568 9.82458 6.34568 10.2917 5.13818 10.2917C2.44568 10.2917 0.263184 7.98792 0.263184 5.14583C0.263184 2.30375 2.44568 0 5.13818 0C7.83068 0 10.0132 2.30375 10.0132 5.14583C10.0132 6.42042 9.57068 7.59208 8.83568 8.49458L9.04568 8.70833ZM1.76319 5.14583C1.76319 7.11708 3.27069 8.70833 5.13819 8.70833C7.00569 8.70833 8.51319 7.11708 8.51319 5.14583C8.51319 3.17458 7.00569 1.58333 5.13819 1.58333C3.27069 1.58333 1.76319 3.17458 1.76319 5.14583Z" fill="black" fill-opacity="0.54"/>
</svg>
