<svg width="14" height="14" viewBox="0 0 14 14" fill="none" xmlns="http://www.w3.org/2000/svg">
<g id="icon/device/access_time_24px">
<path id="icon/device/access_time_24px_2" fill-rule="evenodd" clip-rule="evenodd" d="M6.99413 1.1665C3.77413 1.1665 1.16663 3.77984 1.16663 6.99984C1.16663 10.2198 3.77413 12.8332 6.99413 12.8332C10.22 12.8332 12.8333 10.2198 12.8333 6.99984C12.8333 3.77984 10.22 1.1665 6.99413 1.1665ZM6.99996 11.6665C4.42163 11.6665 2.33329 9.57817 2.33329 6.99984C2.33329 4.4215 4.42163 2.33317 6.99996 2.33317C9.57829 2.33317 11.6666 4.4215 11.6666 6.99984C11.6666 9.57817 9.57829 11.6665 6.99996 11.6665ZM6.99996 4.08317H7.87496V7.14567L10.5 8.70317L10.0625 9.42067L6.99996 7.58317V4.08317Z" fill="black"/>
</g>
</svg>
